<svg width="3042" height="2185" viewBox="0 0 3042 2185" fill="none" xmlns="http://www.w3.org/2000/svg">
<path d="M1646.5 7.50002C1679.5 7.50003 2162.53 -2.14291 2192 12.5001L3008.68 165.913C3038.15 180.557 3049.77 215.528 3034.62 244.024L2784.57 714.475C2769.42 742.968 2733.51 754.32 2704.04 739.681C2573.4 674.792 2229.64 504.03 1989.22 384.517C1749.34 265.276 1404.3 93.8787 1273.34 28.8296C1243.87 14.1876 1245.35 28.4978 1260.5 0L1646.5 7.50002Z" fill="#E36414"/>
<path d="M2084.17 557.472C2099.33 528.976 2135.5 517.746 2164.97 532.389L2893.6 894.405C2923.07 909.05 2934.68 944.02 2919.53 972.516L2639.17 1500C2624.03 1528.48 2587.9 1539.74 2558.42 1525.09C2475.26 1483.8 2312.03 1402.72 2194.37 1344.2C2076.95 1285.8 1913.14 1204.44 1829.75 1163.03C1800.27 1148.39 1788.68 1113.43 1803.83 1084.92L2084.17 557.472Z" fill="#FB8B24"/>
<path d="M287.002 1210.51C302.148 1182.01 338.318 1170.78 367.792 1185.42L1096.42 1547.44C1125.89 1562.08 1137.5 1597.06 1122.36 1625.55L841.995 2153.03C826.852 2181.52 790.723 2192.77 761.253 2178.13C678.091 2136.84 514.858 2055.75 397.189 1997.24C279.77 1938.84 115.965 1857.48 32.5787 1816.07C3.09829 1801.43 -8.49608 1766.46 6.65272 1737.96L287.002 1210.51Z" fill="#FB8B24"/>
</svg>
